# xmcd
#
# Track frame offsets:
#	150
#	17387
#	33120
#	49140
#	66347
#	81494
#	94356
#	110730
#	126113
#	141122
#	154559
#	169819
#	185662
#	198895
#	212671
#	227321
#	240812
#	258137
#	275537
#	289692
#	306330
#	320894
#
# Disc length: 4462 seconds
#
# Revision: 1
# Processed by: cddbd v1.5.2PL0 Copyright (c) Steve Scherf et al.
# Submitted via: audiograbber 1.83.01
#
DISCID=34116c16
DTITLE=Country-Made in Germany - CD 2 - Linda Feller
DYEAR=1900
DGENRE=Country
TTITLE0=Du bist das Salz in meiner Suppe
TTITLE1=Jeder Tag kann ein Anfang sein
TTITLE2=Andere Mütter haben auch ein schönes Kind
TTITLE3=Jetzt lieb ich  dich erst recht
TTITLE4=Mit mir machst du keinen Fehler
TTITLE5=Wunderbar
TTITLE6=Ich bin ich (mit dir)
TTITLE7=Feuer und Eis
TTITLE8=Ich führ Buch über jede Träne
TTITLE9=Er ist wie er ist
TTITLE10=Er muss mich wirklich lieben
TTITLE11=Ich geb´ nicht auf
TTITLE12=Ich weiß genau was ich will
TTITLE13=Minuten im Fieber
TTITLE14=So gut wie du kennt mich keiner
TTITLE15=Wir sind alle keine Engel
TTITLE16=Wie der Mond und die Sterne
TTITLE17=Langsam aber sicher
TTITLE18=Tiefer als sonst
TTITLE19=Wenn du traurig bist
TTITLE20=Lass mich heut Nacht nicht allein
TTITLE21=Wie ein Stern in der Nacht
EXTD=Readers Digest Edition
EXTT0=
EXTT1=
EXTT2=
EXTT3=
EXTT4=
EXTT5=
EXTT6=
EXTT7=
EXTT8=
EXTT9=
EXTT10=
EXTT11=
EXTT12=
EXTT13=
EXTT14=
EXTT15=
EXTT16=
EXTT17=
EXTT18=
EXTT19=
EXTT20=
EXTT21=
PLAYORDER=
